<svg preserveAspectRatio="none" width="100%" height="100%" overflow="visible" style="display: block;" viewBox="0 0 18.3203 15.8203" fill="none" xmlns="http://www.w3.org/2000/svg">
<g id="Container">
<path id="Icon" d="M9.0625 5H9.17969C9.85677 5 10.4427 5.2474 10.9375 5.74219C11.4323 6.23698 11.6797 6.82292 11.6797 7.5V7.65625L9.0625 5V5M5.46875 5.66406C5.15625 6.28906 5 6.90104 5 7.5C5 8.64583 5.41016 9.62891 6.23047 10.4492C7.05078 11.2695 8.03385 11.6797 9.17969 11.6797C9.77865 11.6797 10.3906 11.5234 11.0156 11.2109L9.72656 9.92188C9.51823 9.97396 9.33594 10 9.17969 10C8.5026 10 7.91667 9.7526 7.42188 9.25781C6.92708 8.76302 6.67969 8.17708 6.67969 7.5C6.67969 7.34375 6.70573 7.16146 6.75781 6.95312L5.46875 5.66406V5.66406M0.859375 1.05469L1.91406 0L16.6797 14.7656L15.625 15.8203C15.4948 15.6901 15.0846 15.2865 14.3945 14.6094C13.7044 13.9323 13.1771 13.4115 12.8125 13.0469C11.6927 13.5156 10.4818 13.75 9.17969 13.75C7.1224 13.75 5.26042 13.1771 3.59375 12.0312C1.92708 10.8854 0.729167 9.375 0 7.5C0.286458 6.82292 0.735677 6.07422 1.34766 5.25391C1.95964 4.43359 2.55208 3.80208 3.125 3.35938C2.8125 3.04688 2.3763 2.60417 1.81641 2.03125C1.25651 1.45833 0.9375 1.13281 0.859375 1.05469V1.05469M9.17969 3.32031C8.65885 3.32031 8.15104 3.42448 7.65625 3.63281L5.85938 1.83594C6.875 1.44531 7.98177 1.25 9.17969 1.25C11.237 1.25 13.0924 1.82292 14.7461 2.96875C16.3997 4.11458 17.5911 5.625 18.3203 7.5C17.6953 9.03646 16.7448 10.3516 15.4688 11.4453L13.0469 9.02344C13.2552 8.52865 13.3594 8.02083 13.3594 7.5C13.3594 6.35417 12.9492 5.37109 12.1289 4.55078C11.3086 3.73047 10.3255 3.32031 9.17969 3.32031V3.32031" fill="#9CA3AF"/>
</g>
</svg>
